<?xml version="1.0" encoding="UTF-8" standalone="no"?>
<!DOCTYPE svg PUBLIC "-//W3C//DTD SVG 1.1//EN" "http://www.w3.org/Graphics/SVG/1.1/DTD/svg11.dtd">
<svg width="100%" height="100%" viewBox="0 0 501 226" version="1.1" xmlns="http://www.w3.org/2000/svg" xmlns:xlink="http://www.w3.org/1999/xlink" xml:space="preserve" xmlns:serif="http://www.serif.com/" style="fill-rule:evenodd;clip-rule:evenodd;stroke-linejoin:round;stroke-miterlimit:2;">
    <g transform="matrix(1,0,0,1,-0.439026,-105.935)">
        <g transform="matrix(2.39807,0,0,2.39807,-445.495,-414.557)">
            <clipPath id="_clip1">
                <rect x="132.318" y="193.141" width="254" height="114"/>
            </clipPath>
            <g clip-path="url(#_clip1)">
                <g transform="matrix(0.825115,0,0,0.825115,76.4123,57.6825)">
                    <path d="M385.521,230.328L385.875,230.328L385.875,193.141L132.76,193.141L132.76,230.484C142.38,231.703 149.823,239.932 149.823,249.891C149.823,259.896 142.38,268.125 132.76,269.344L132.76,307.141L385.875,307.141L385.875,269.5L385.521,269.5C374.74,269.5 365.979,260.708 365.979,249.891C365.979,239.068 374.74,230.328 385.521,230.328ZM290.552,306.229L290.047,306.229L290.047,305.214L290.552,305.214L290.552,306.229ZM290.552,303.13L290.047,303.13L290.047,301.047L290.552,301.047L290.552,303.13ZM290.552,298.964L290.047,298.964L290.047,296.88L290.552,296.88L290.552,298.964ZM290.552,294.797L290.047,294.797L290.047,292.714L290.552,292.714L290.552,294.797ZM290.552,290.583L290.047,290.583L290.047,288.5L290.552,288.5L290.552,290.583ZM290.552,286.417L290.047,286.417L290.047,284.333L290.552,284.333L290.552,286.417ZM290.552,282.25L290.047,282.25L290.047,280.167L290.552,280.167L290.552,282.25ZM290.552,278.083L290.047,278.083L290.047,276L290.552,276L290.552,278.083ZM290.552,273.917L290.047,273.917L290.047,271.833L290.552,271.833L290.552,273.917ZM290.552,269.755L290.047,269.755L290.047,267.672L290.552,267.672L290.552,269.755ZM290.552,265.589L290.047,265.589L290.047,263.505L290.552,263.505L290.552,265.589ZM290.552,261.37L290.047,261.37L290.047,259.286L290.552,259.286L290.552,261.37ZM290.552,257.203L290.047,257.203L290.047,255.12L290.552,255.12L290.552,257.203ZM290.552,253.036L290.047,253.036L290.047,250.958L290.552,250.958L290.552,253.036ZM290.552,248.875L290.047,248.875L290.047,246.792L290.552,246.792L290.552,248.875ZM290.552,244.708L290.047,244.708L290.047,242.625L290.552,242.625L290.552,244.708ZM290.552,240.542L290.047,240.542L290.047,238.458L290.552,238.458L290.552,240.542ZM290.552,236.375L290.047,236.375L290.047,234.292L290.552,234.292L290.552,236.375ZM290.552,232.161L290.047,232.161L290.047,230.078L290.552,230.078L290.552,232.161ZM290.552,227.995L290.047,227.995L290.047,225.911L290.552,225.911L290.552,227.995ZM290.552,223.828L290.047,223.828L290.047,221.745L290.552,221.745L290.552,223.828ZM290.552,219.661L290.047,219.661L290.047,217.578L290.552,217.578L290.552,219.661ZM290.552,215.495L290.047,215.495L290.047,213.411L290.552,213.411L290.552,215.495ZM290.552,211.328L290.047,211.328L290.047,209.245L290.552,209.245L290.552,211.328ZM290.552,207.167L290.047,207.167L290.047,205.083L290.552,205.083L290.552,207.167ZM290.552,203L290.047,203L290.047,200.917L290.552,200.917L290.552,203ZM290.552,198.781L290.047,198.781L290.047,196.698L290.552,196.698L290.552,198.781ZM290.552,194.615L290.047,194.615L290.047,193.599L290.552,193.599L290.552,194.615Z" style="fill:rgb(233,185,16);fill-rule:nonzero;"/>
                    <g transform="matrix(0.841954,0,0,0.841954,77.7393,51.9372)">
                        <text x="85.317px" y="254.96px" style="font-family:'Bauhaus93', 'Bauhaus 93', fantasy;font-size:63.708px;">Movie</text>
                    </g>
                    <g transform="matrix(0.77437,0,0,0.77437,61.7639,51.833)">
                        <text x="299.603px" y="279.762px" style="font-family:'Bauhaus93', 'Bauhaus 93', fantasy;font-size:63.708px;">DB</text>
                    </g>
                </g>
            </g>
        </g>
    </g>
</svg>
